<?xml version="1.0"?>
<svg xmlns="http://www.w3.org/2000/svg" viewBox="0 0 64 64" width="512" height="512"><g id="Route-pin-locations-5" data-name="Route-pin-locations"><path d="M48,23A16,16,0,1,0,32,39,16.019,16.019,0,0,0,48,23ZM18,23A14,14,0,1,1,32,37,14.015,14.015,0,0,1,18,23Z"/><path d="M38,29a3.978,3.978,0,0,0-6.584-3.028l-3.68-2.579a3.836,3.836,0,0,0,.173-2.229L33,18.618a3.943,3.943,0,1,0-.909-1.782L27,19.382a4,4,0,1,0-.416,5.646l3.68,2.579A3.955,3.955,0,0,0,30,29a4,4,0,0,0,8,0ZM36,14a2,2,0,1,1-2,2A2,2,0,0,1,36,14ZM24,24a2,2,0,1,1,2-2A2,2,0,0,1,24,24Zm8,5a2,2,0,1,1,2,2A2,2,0,0,1,32,29Z"/><path d="M37.058,52.435C43.013,44.915,53,31.1,53,23a21,21,0,0,0-42,0c0,8.1,9.987,21.915,15.942,29.435C23.331,53.092,20,54.55,20,57c0,3.283,6.037,5,12,5s12-1.717,12-5C44,54.55,40.669,53.092,37.058,52.435ZM32,4A19.021,19.021,0,0,1,51,23c0,9.353-15.383,28.165-19,32.458-3.619-4.3-19-23.1-19-32.458A19.021,19.021,0,0,1,32,4Zm0,56c-6.012,0-10-1.806-10-3,0-.831,2.231-2.2,6.391-2.758,1.584,1.949,2.673,3.205,2.855,3.415a1,1,0,0,0,1.508,0c.182-.21,1.271-1.466,2.855-3.415C39.769,54.8,42,56.169,42,57,42,58.194,38.012,60,32,60Z"/></g></svg>
